<svg width="360" height="279" viewBox="0 0 360 279" fill="none" xmlns="http://www.w3.org/2000/svg">
<path d="M30.3999 135.848V132.448H12.6499V135.798V135.848H30.3499H30.3999Z" fill="#E0C1A2"/>
<path d="M30.3499 140.798V135.848H12.6499V135.798C11.4499 136.398 10.3666 137.348 9.3999 138.648V140.798H30.3499Z" fill="#AA7E5C"/>
<path d="M21.5499 117.798H21.4999C19.0332 117.798 16.9499 118.631 15.2499 120.298C13.5166 121.998 12.6499 124.065 12.6499 126.498V132.448H30.3999V126.498C30.3999 124.065 29.5499 121.998 27.8499 120.298C26.1166 118.631 24.0166 117.798 21.5499 117.798Z" fill="#ECCFB1"/>
<path d="M33.9184 135.848L33.4973 132.448H51.2473L51.6622 135.798L51.6684 135.848H33.9684H33.9184Z" fill="#E0C1A2"/>
<path d="M34.5816 140.798L33.9685 135.848H51.6685L51.6624 135.798C52.9367 136.398 54.1376 137.348 55.2653 138.648L55.5316 140.798H34.5816Z" fill="#AA7E5C"/>
<path d="M40.5331 117.798H40.5831C43.0498 117.798 45.2363 118.631 47.1427 120.298C49.0866 121.998 50.2092 124.065 50.5105 126.498L51.2474 132.448H33.4974L32.7605 126.498C32.4592 124.065 33.0532 121.998 34.5427 120.298C36.0696 118.631 38.0664 117.798 40.5331 117.798Z" fill="#ECCFB1"/>
<path d="M33.0118 114.848L35.859 101.648L27.5124 102.048L33.0118 114.848Z" fill="#FAFAFA"/>
<path d="M37.265 95.098L35.8589 101.648L33.0118 114.848L38.7389 106.698L40.5634 104.048L42.5147 101.298L37.265 95.098ZM27.5124 102.048L24.5203 95.098L20.6011 101.298L33.0118 114.848L27.5124 102.048ZM15.212 121.998L15.652 126.098H51.4105L50.9706 121.998H15.212Z" fill="#8E643A"/>
<path d="M35.8589 101.648L37.265 95.098H24.5203L27.5124 102.048L35.8589 101.648Z" fill="#25A65B"/>
<path d="M38.7389 106.698L33.0118 114.848L20.6011 101.298L24.5203 95.098H12.3257L15.212 121.998H50.9706L48.0842 95.098H37.265L42.5147 101.298L40.5634 104.048H45.5604L45.8447 106.698H38.7389Z" fill="#C48A51"/>
<path d="M45.5605 104.048H40.5634L38.7389 106.698H45.8448L45.5605 104.048Z" fill="#B17D49"/>
<path d="M42.3167 114.156C42.1781 114.546 42.054 114.965 41.9445 115.413C41.6118 115.466 41.2978 115.586 41.0022 115.775C40.7211 115.975 40.49 116.213 40.309 116.487C39.8781 116.432 39.4645 116.396 39.0682 116.381C38.0621 116.328 37.5373 116.459 37.4939 116.773C37.4474 117.109 37.8962 117.528 38.8402 118.028C39.2125 118.221 39.6166 118.406 40.0523 118.581C40.1264 118.929 40.2678 119.261 40.4765 119.575C40.6974 119.922 40.9451 120.202 41.2195 120.414C41.2207 120.902 41.236 121.349 41.2653 121.755C41.3284 122.891 41.5189 123.504 41.8369 123.594C42.1336 123.678 42.4624 123.212 42.8233 122.197C42.9698 121.832 43.1044 121.416 43.2273 120.948C43.5228 120.901 43.8035 120.782 44.0694 120.593C44.3536 120.421 44.5831 120.195 44.7581 119.914C45.2167 119.998 45.6393 120.048 46.026 120.064C47.0745 120.128 47.622 119.992 47.6685 119.656C47.7119 119.342 47.2404 118.929 46.254 118.416C45.8938 118.212 45.4913 118.016 45.0465 117.83C44.9604 117.476 44.81 117.131 44.5951 116.793C44.3977 116.483 44.1697 116.221 43.9111 116.006C43.9198 115.514 43.9077 115.045 43.8747 114.598C43.8054 113.506 43.6223 112.919 43.3256 112.835C43.0076 112.745 42.6713 113.185 42.3167 114.156Z" fill="#E05848"/>
<path d="M19.1187 105.245C18.8584 105.496 18.6716 105.798 18.5582 106.15C18.4448 106.502 18.4082 106.858 18.4483 107.219C18.0378 107.415 17.6924 107.624 17.4121 107.848C16.6213 108.434 16.2809 108.88 16.3911 109.185C16.5447 109.498 17.1105 109.593 18.0883 109.468C18.4454 109.401 18.8476 109.321 19.2948 109.226C19.5185 109.484 19.7888 109.705 20.1059 109.888C20.4464 110.053 20.8035 110.139 21.1773 110.147C21.3877 110.59 21.6131 110.977 21.8534 111.309C22.5078 112.314 22.9718 112.751 23.2455 112.621C23.5392 112.518 23.5507 111.898 23.2801 110.761C23.1766 110.364 23.0647 109.93 22.9444 109.459C23.1179 109.19 23.2597 108.902 23.3698 108.596C23.4832 108.244 23.5515 107.906 23.5748 107.583C23.9452 107.331 24.3023 107.112 24.646 106.925C25.4602 106.32 25.7905 105.861 25.637 105.547C25.5267 105.242 24.971 105.162 23.9698 105.305C23.5493 105.335 23.1154 105.397 22.6682 105.492C22.4445 105.234 22.1625 105.023 21.822 104.858C21.5049 104.674 21.2028 104.588 20.9158 104.598C20.642 104.119 20.3866 103.69 20.1496 103.312C19.5119 102.38 19.0462 101.966 18.7526 102.07C18.4789 102.2 18.469 102.797 18.7229 103.86C18.8031 104.275 18.935 104.737 19.1187 105.245Z" fill="#E05848"/>
<path d="M31.8037 119.398C31.8235 119.298 31.8128 119.198 31.7715 119.098L29.8158 115.398C29.8122 115.365 29.7934 115.331 29.7592 115.298L26.951 112.198C26.9133 112.131 26.8333 112.098 26.711 112.098C26.6158 112.065 26.5259 112.081 26.4413 112.148L25.8937 112.598C25.8361 112.631 25.7974 112.698 25.7776 112.798C25.7883 112.898 25.8143 112.998 25.8556 113.098L27.9191 116.948C27.9533 116.981 27.9721 117.015 27.9757 117.048L30.6761 119.998C30.7444 120.065 30.8397 120.098 30.9619 120.098C31.0572 120.131 31.1471 120.115 31.2316 120.048L31.693 119.648C31.747 119.581 31.7839 119.498 31.8037 119.398Z" fill="#B17D49"/>
<path d="M11.6 94.2981H11.55C11.15 94.2314 10.7667 94.1981 10.4 94.1981C7.03333 94.0981 4.18333 97.4481 1.85 104.248L0 108.648L2.85 108.298L6.75 107.848L9.25 110.948L12.75 109.398L16.3 110.848L17.75 111.498C17.1625 110.452 16.9958 108.985 17.25 107.098L17.9 103.498C18.3 101.365 17.8833 99.3814 16.65 97.5481C15.4167 95.7481 13.7333 94.6648 11.6 94.2981Z" fill="#AF7B48"/>
<path d="M16.2999 110.848L12.7499 109.398L9.24991 110.948L6.74991 107.848L2.84991 108.298C2.08989 114.263 1.83989 119.313 2.09991 123.448C4.13325 125.381 6.64991 126.631 9.64991 127.198C12.3092 122.747 14.5258 117.297 16.2999 110.848Z" fill="#2ECC71"/>
<path d="M17.2498 125.948C16.0498 122.648 14.6331 120.265 12.9998 118.798L3.34979 121.348C2.54979 121.548 2.23313 122.015 2.39979 122.748L2.54979 123.298C4.34979 131.365 7.54979 134.798 12.1498 133.598C13.7831 133.198 15.3998 132.581 16.9998 131.748C18.0665 131.215 18.4998 130.548 18.2998 129.748L18.2498 129.498C17.9831 128.531 17.7165 127.598 17.4498 126.698V126.748L17.2498 125.948ZM4.19979 124.798C4.16646 124.498 4.53313 124.115 5.29979 123.648C6.03313 123.181 6.96646 122.748 8.09979 122.348C9.26646 121.981 10.2498 121.748 11.0498 121.648C11.9165 121.581 12.3665 121.681 12.3998 121.948C12.4665 122.248 12.1331 122.631 11.3998 123.098C10.6665 123.598 9.71646 124.048 8.54979 124.448C7.41646 124.848 6.43313 125.081 5.59979 125.148C4.73313 125.215 4.26646 125.098 4.19979 124.798Z" fill="#2ECC71"/>
<path d="M5.29984 123.648C4.53317 124.115 4.1665 124.498 4.19984 124.798C4.2665 125.098 4.73317 125.215 5.59984 125.148C6.43317 125.081 7.4165 124.848 8.54984 124.448C9.7165 124.048 10.6665 123.598 11.3998 123.098C12.1332 122.631 12.4665 122.248 12.3998 121.948C12.3665 121.681 11.9165 121.581 11.0498 121.648C10.2498 121.748 9.2665 121.981 8.09984 122.348C6.9665 122.748 6.03317 123.181 5.29984 123.648ZM17.4498 126.698C19.5165 123.798 18.0332 121.165 12.9998 118.798C14.6332 120.265 16.0498 122.648 17.2498 125.948L17.4498 126.748V126.698Z" fill="#29B665"/>
<path d="M42.4215 95.7949L42.3906 95.8342C42.0906 96.1071 41.8271 96.3875 41.6001 96.6755C39.4376 99.2576 40.3043 103.57 44.2004 109.611L46.5107 113.788L48.0001 111.333L50.0608 107.992L54.043 107.947L54.9922 104.239L58.3285 102.349L59.7366 101.612C58.5514 101.426 57.2964 100.649 55.9715 99.2811L53.5466 96.5422C52.1188 94.9075 50.3032 94.007 48.0999 93.8407C45.9229 93.6951 44.03 94.3465 42.4215 95.7949Z" fill="#AF7B48"/>
<path d="M58.3285 102.348L54.9922 104.239L54.043 107.947L50.0608 107.992L48.0001 111.333C52.2138 115.622 56.0251 118.944 59.4339 121.3C62.211 120.9 64.7505 119.697 67.0526 117.692C65.2034 112.849 62.2954 107.734 58.3285 102.348Z" fill="#2ECC71"/>
<path d="M69.3976 109.38C65.9398 108.769 63.1675 108.804 61.0807 109.485L58.4641 119.117C58.2374 119.91 58.4832 120.418 59.2016 120.64L59.7529 120.785C67.6387 123.259 72.212 122.205 73.4727 117.621C73.9429 116.007 74.2172 114.298 74.2955 112.496C74.3669 111.306 74.0062 110.597 73.2134 110.37L72.9719 110.289C72.0014 110.036 71.0598 109.801 70.1471 109.581L70.1904 109.606L69.3976 109.38ZM61.8769 120.106C61.6004 119.985 61.4518 119.476 61.4309 118.579C61.3935 117.71 61.4848 116.685 61.7051 115.504C61.9709 114.31 62.2604 113.342 62.5738 112.599C62.9494 111.815 63.261 111.475 63.5086 111.58C63.8018 111.672 63.9671 112.152 64.0045 113.021C64.0709 113.906 63.9856 114.954 63.7487 116.164C63.5285 117.345 63.2389 118.314 62.88 119.069C62.5044 119.853 62.17 120.198 61.8769 120.106Z" fill="#2ECC71"/>
<path d="M61.4309 118.579C61.4517 119.476 61.6003 119.985 61.8768 120.106C62.1699 120.198 62.5043 119.853 62.8799 119.069C63.2388 118.314 63.5284 117.345 63.7486 116.164C63.9855 114.954 64.0708 113.906 64.0045 113.021C63.967 112.152 63.8017 111.672 63.5085 111.58C63.2609 111.475 62.9493 111.815 62.5738 112.599C62.2604 113.342 61.9708 114.31 61.705 115.504C61.4848 116.685 61.3934 117.71 61.4309 118.579ZM70.147 109.581C68.6689 106.342 65.6467 106.31 61.0806 109.485C63.1674 108.804 65.9397 108.769 69.3975 109.38L70.1903 109.606L70.147 109.581Z" fill="#29B665"/>
<path d="M21.7498 97.6481L31.3498 102.198L40.9498 97.6481H21.7498Z" fill="#25A65B"/>
<path d="M50.6499 72.448C50.2165 69.4814 48.5165 67.998 45.5499 67.998H15.1999C12.2665 67.998 10.5665 69.5147 10.0999 72.548C9.09985 79.4147 9.09985 86.2814 10.0999 93.148C10.5665 96.148 12.2665 97.648 15.1999 97.648H21.7499H40.9499H45.5499C48.5165 97.648 50.2332 96.1314 50.6999 93.098C51.7332 86.3647 51.7165 79.4814 50.6499 72.448Z" fill="#2ECC71"/>
<path d="M24.2499 87.498C25.2832 87.498 26.1332 87.1147 26.7999 86.348C27.412 85.7359 27.762 85.0192 27.8499 84.198H20.5999C20.71 85.0192 21.0433 85.7359 21.5999 86.348C22.3332 87.1147 23.2165 87.498 24.2499 87.498ZM42.8499 87.498C43.8832 87.498 44.7332 87.1147 45.3999 86.348C46.012 85.7359 46.362 85.0192 46.4499 84.198H39.1999C39.31 85.0192 39.6433 85.7359 40.1999 86.348C40.9332 87.1147 41.8165 87.498 42.8499 87.498Z" fill="white"/>
<path d="M28.9999 79.448C28.9666 79.148 28.8499 78.9147 28.6499 78.748C28.4499 78.548 28.2166 78.4647 27.9499 78.498C25.3166 78.7314 22.8333 78.598 20.4999 78.098C20.1999 78.0314 19.9333 78.0647 19.6999 78.198C19.4666 78.3314 19.3333 78.548 19.2999 78.848C19.2333 79.1147 19.2666 79.3647 19.3999 79.598C19.5333 79.8314 19.7499 79.9814 20.0499 80.048C22.5499 80.5814 25.2333 80.7314 28.0999 80.498C28.3666 80.4647 28.5999 80.348 28.7999 80.148C28.9666 79.948 29.0333 79.7147 28.9999 79.448ZM47.0499 78.248C46.8166 78.1147 46.5499 78.0814 46.2499 78.148C43.9166 78.648 41.4333 78.7814 38.7999 78.548C38.5333 78.5147 38.2999 78.598 38.0999 78.798C37.8999 78.9647 37.7833 79.198 37.7499 79.498C37.7166 79.7647 37.7833 79.998 37.9499 80.198C38.1499 80.398 38.3833 80.5147 38.6499 80.548C41.5166 80.7814 44.1999 80.6314 46.6999 80.098C46.9999 80.0314 47.2166 79.8814 47.3499 79.648C47.4833 79.4147 47.5166 79.1647 47.4499 78.898C47.4166 78.598 47.2833 78.3814 47.0499 78.248Z" fill="#7E8991"/>
<path d="M39.15 90.1981C39.2167 89.9314 39.2 89.6647 39.1 89.3981L36.25 91.3981L38.4 93.9481V93.8981C38.6 93.6981 38.7167 93.4481 38.75 93.1481L39.15 90.1981Z" fill="#7F7058"/>
<path d="M27.3 89.798C27.0333 90.0647 26.9 90.3814 26.9 90.748C26.8666 91.1147 26.95 91.448 27.15 91.748C27.3833 92.048 27.6833 92.248 28.05 92.348L36.9 94.398C37.1666 94.4647 37.4333 94.4647 37.7 94.398C37.9666 94.298 38.2 94.148 38.4 93.948L36.25 91.398L39.1 89.398C39.0666 89.3647 39.05 89.3314 39.05 89.298C38.9166 88.998 38.7 88.7814 38.4 88.648C38.1333 88.4814 37.85 88.4147 37.55 88.448L28.25 89.348C27.85 89.3814 27.5333 89.5314 27.3 89.798Z" fill="white"/>
<path d="M15.957 87.1941C15.9385 87.3046 15.9478 87.4059 15.9846 87.4979L17.8074 91.337C17.8259 91.3738 17.8443 91.4106 17.8627 91.4475L20.4589 94.3751C20.5325 94.4672 20.6246 94.5132 20.7351 94.5132C20.8456 94.5316 20.9468 94.5132 21.0389 94.458L21.5913 94.0437C21.6649 93.9884 21.7202 93.9148 21.757 93.8227C21.7754 93.7122 21.7662 93.611 21.7294 93.5189L20.0722 89.7903C20.0538 89.7719 20.0354 89.7443 20.017 89.7075L17.3103 86.6141C17.2551 86.5405 17.1722 86.4944 17.0617 86.476C16.9513 86.4576 16.85 86.476 16.7579 86.5313L16.1227 86.9732C16.049 87.0284 15.9938 87.1021 15.957 87.1941Z" fill="#28B162"/>
<path d="M19.25 72.098L21.7 67.998L16.2 73.598L17.6 74.848L19.25 72.098ZM48.35 74.498L40.25 75.948L40.85 77.248L48.35 74.498ZM51.1 85.798L51.45 87.248C56.8268 79.1311 58.6601 70.0478 56.95 59.998H51.6C54.0911 68.6064 53.9244 77.2064 51.1 85.798ZM24.2 58.348L27.1 61.248C32.864 57.8012 39.1807 55.4512 46.0499 54.198C40.2065 53.3129 34.5398 53.6629 29.05 55.248L31.9 51.348C25.7523 50.2681 20.7856 51.7014 17 55.648L13.35 59.348L10.45 58.098L5.69995 69.198C6.27118 70.6897 6.68784 72.123 6.94995 73.498L24.2 58.348Z" fill="#717B83"/>
<path d="M33.6 74.948L31.9 70.248L21.7 67.998L19.25 72.098L33.6 74.948Z" fill="black" fill-opacity="0.101961"/>
<path d="M51.5999 59.998H49.0999L50.9499 55.248C49.3034 54.8088 47.6701 54.4588 46.0499 54.198C39.1807 55.4511 32.864 57.8011 27.0999 61.248L24.1999 58.348L6.94992 73.498C7.57687 76.4621 7.52687 79.1621 6.79992 81.598C5.77414 85.1773 6.99081 88.394 10.4499 91.248L15.1999 83.248L13.0999 76.748L16.1999 73.598L21.6999 67.998L31.8999 70.248L33.5999 74.948L34.3499 76.998L40.2499 75.948L48.3499 74.498L51.0999 85.798C53.9244 77.2063 54.0911 68.6063 51.5999 59.998Z" fill="#6B747B"/>
<path d="M177.314 63.3323L180.128 64.0347L175.533 81.1793L173.602 80.6617L177.314 63.3323Z" fill="#916B4E"/>
<path d="M170.794 61.5852L177.314 63.3323L173.602 80.6616L171.443 78.4786L171.042 79.9757C170.152 80.9795 168.954 81.78 167.448 82.3772L165.371 81.8207L170.794 61.5852Z" fill="#AA7E5C"/>
<path d="M180.128 64.0346L183.412 64.9147L178.818 82.0593L175.534 81.1793L180.128 64.0346Z" fill="#E0C1A2"/>
<path d="M189.948 69.3061C191.109 71.4117 191.37 73.6557 190.732 76.0383L190.719 76.0866C190.081 78.4691 188.736 80.2657 186.686 81.4763C184.596 82.7105 182.375 83.0127 180.025 82.3829L178.818 82.0594L183.412 64.9147L184.62 65.2382C186.97 65.8681 188.746 67.224 189.948 69.3061Z" fill="#ECCFB1"/>
<path d="M215.239 74.135L214.905 70.0989L189.393 72.2133L178.48 73.1178L176.039 73.3201L176.373 77.3562L215.239 74.135ZM181.884 48.2019C181.389 47.4737 180.824 46.7177 180.191 45.934L173.813 46.4626L175.254 63.8527C183.703 61.6808 186.538 57.5492 183.759 51.4581L181.368 50.4522C181.404 49.6799 181.576 48.9298 181.884 48.2019ZM212.679 43.2414L206.6 43.7452C207.703 45.7609 208.084 47.9369 207.743 50.273C207.284 54.425 209.327 56.8813 213.872 57.6418L212.679 43.2414Z" fill="#B8824D"/>
<path d="M196.322 56.5378L206.6 43.7453L183.479 45.6615L196.322 56.5378Z" fill="#E0C79A"/>
<path d="M207.743 50.273C208.084 47.9368 207.703 45.7609 206.6 43.7452L196.321 56.5377L207.743 50.273ZM181.884 48.2019C181.576 48.9297 181.404 49.6798 181.368 50.4521L183.759 51.458L196.321 56.5377L183.479 45.6614C182.776 46.4556 182.244 47.3024 181.884 48.2019Z" fill="#637480"/>
<path d="M183.759 51.4581C186.538 57.5492 183.703 61.6808 175.254 63.8527L176.039 73.3201L178.48 73.1178L185.288 67.4863L189.393 72.2133L214.905 70.0989L213.872 57.6418C209.327 56.8813 207.284 54.425 207.743 50.273L196.321 56.5377L183.759 51.4581ZM197.765 60.0304C197.408 59.7589 197.213 59.4239 197.18 59.0253C197.147 58.6267 197.283 58.2475 197.587 57.8878C197.861 57.564 198.198 57.3856 198.597 57.3526C198.995 57.3195 199.356 57.4401 199.68 57.7143C200.007 58.0217 200.186 58.3747 200.219 58.7734C200.252 59.172 200.132 59.5332 199.858 59.8569C199.583 60.1807 199.247 60.3591 198.848 60.3921C198.45 60.4251 198.089 60.3046 197.765 60.0304ZM196.775 64.4271C199.166 64.2289 201.227 64.2755 202.957 64.5669C204.521 64.8721 205.408 65.2836 205.618 65.8013L188.328 67.2344C188.417 66.6918 189.207 66.1413 190.699 65.5829C192.358 65.0106 194.383 64.6253 196.775 64.4271ZM180.191 45.934C180.824 46.7177 181.389 47.4737 181.884 48.2019C182.244 47.3024 182.776 46.4556 183.479 45.6615L180.191 45.934Z" fill="#7E95A3"/>
<path d="M202.957 64.567C201.227 64.2755 199.166 64.2289 196.775 64.4271C194.383 64.6254 192.358 65.0106 190.699 65.5829C189.207 66.1414 188.417 66.6919 188.328 67.2344L205.618 65.8014C205.408 65.2836 204.521 64.8722 202.957 64.567Z" fill="#738895"/>
<path d="M197.18 59.0252C197.213 59.4239 197.408 59.7589 197.765 60.0303C198.089 60.3045 198.45 60.4251 198.848 60.3921C199.247 60.359 199.583 60.1806 199.858 59.8569C200.132 59.5331 200.252 59.172 200.219 58.7733C200.186 58.3747 200.007 58.0217 199.68 57.7143C199.356 57.4401 198.995 57.3195 198.597 57.3525C198.198 57.3856 197.861 57.564 197.587 57.8877C197.283 58.2474 197.147 58.6266 197.18 59.0252ZM185.288 67.4862L178.48 73.1177L189.393 72.2133L185.288 67.4862Z" fill="#E7E2DA"/>
<path d="M196.082 76.3213L196.032 73.4213H213.782V75.4213L196.082 76.3213Z" fill="#916B4E"/>
<path d="M196.082 83.0713V76.3213L213.782 75.4213L212.232 78.0713H213.782C214.982 78.6713 216.065 79.6213 217.032 80.9213V83.0713H196.082Z" fill="#AA7E5C"/>
<path d="M196.032 73.4212V70.0212H213.782V73.4212H196.032Z" fill="#E0C1A2"/>
<path d="M198.582 62.5713C200.315 60.9046 202.415 60.0713 204.882 60.0713H204.932C207.398 60.0713 209.482 60.9046 211.182 62.5713C212.915 64.2713 213.782 66.338 213.782 68.7713V70.0213H196.032V68.7713C196.032 66.338 196.882 64.2713 198.582 62.5713Z" fill="#ECCFB1"/>
<path d="M179.379 60.415C179.422 60.3591 179.461 60.3027 179.497 60.2457L166.518 52.4442C164.896 53.5019 164.157 55.2181 164.301 57.5928L165.354 57.7776L179.379 60.415Z" fill="#E7E2DA"/>
<path d="M179.929 60.5164L181.441 57.9346L168.048 49.8157C167.096 49.8829 166.586 50.7591 166.518 52.4443L179.497 60.2458L179.929 60.5164Z" fill="#637480"/>
<path d="M165.354 57.7776C163.832 61.0672 162.541 64.428 161.483 67.8601C162.7 70.3882 164.611 72.4484 167.215 74.0407C172.002 70.2463 176.057 65.7044 179.379 60.4151L165.354 57.7776Z" fill="#FFE0B1"/>
<path d="M184.262 48.7909C183.746 46.6708 182.555 45.0616 180.69 43.9632L180.643 43.9455C180.293 43.7415 179.946 43.5746 179.603 43.4447C176.49 42.159 172.638 44.2826 168.048 49.8157L181.441 57.9345L183.324 54.798C184.453 52.9446 184.766 50.9422 184.262 48.7909Z" fill="#7E95A3"/>
<path d="M174.72 75.8264C174.766 72.3153 174.285 69.5847 173.277 67.6347L163.349 66.6022C162.53 66.5059 162.069 66.8302 161.965 67.575L161.911 68.1425C160.737 76.3238 162.514 80.6679 167.241 81.1746C168.91 81.3789 170.641 81.3747 172.432 81.162C173.618 81.041 174.26 80.571 174.356 79.752L174.398 79.5005C174.491 78.502 174.572 77.5347 174.641 76.5986L174.623 76.6454L174.72 75.8264ZM162.923 70.1296C162.998 69.8372 163.476 69.6086 164.359 69.4437C165.21 69.2669 166.236 69.1922 167.438 69.2195C168.658 69.2897 169.661 69.4197 170.444 69.6095C171.278 69.854 171.664 70.1069 171.601 70.3681C171.557 70.6723 171.109 70.9127 170.258 71.0895C169.395 71.2974 168.347 71.3818 167.115 71.3427C165.913 71.3155 164.911 71.1854 164.108 70.9527C163.274 70.7081 162.879 70.4338 162.923 70.1296Z" fill="#FFE0B1"/>
<path d="M164.359 69.4437C163.476 69.6086 162.998 69.8373 162.923 70.1296C162.879 70.4338 163.274 70.7081 164.108 70.9527C164.911 71.1855 165.913 71.3155 167.115 71.3427C168.347 71.3818 169.395 71.2974 170.258 71.0895C171.109 70.9128 171.557 70.6723 171.6 70.3681C171.664 70.1069 171.278 69.8541 170.444 69.6095C169.661 69.4197 168.658 69.2897 167.437 69.2195C166.236 69.1922 165.21 69.2669 164.359 69.4437ZM174.641 76.5987C177.601 74.6184 177.146 71.6305 173.277 67.6347C174.285 69.5848 174.766 72.3153 174.72 75.8264L174.623 76.6454L174.641 76.5987Z" fill="#E7CBA0"/>
<path d="M208.574 56.9492C208.537 56.8892 208.504 56.8292 208.474 56.7689L222.167 50.3047C223.675 51.5194 224.239 53.3009 223.858 55.6492L222.792 55.7278L208.574 56.9492Z" fill="#E7E2DA"/>
<path d="M208.017 56.995L206.77 54.2749L220.908 47.5364C221.849 47.6985 222.268 48.6213 222.167 50.3048L208.474 56.769L208.017 56.995Z" fill="#637480"/>
<path d="M222.792 55.7278C223.978 59.1531 224.926 62.6261 225.636 66.1468C224.172 68.5405 222.064 70.3993 219.313 71.723C214.93 67.4688 211.35 62.5442 208.574 56.9492L222.792 55.7278Z" fill="#FFE0B1"/>
<path d="M204.878 44.8949C205.604 42.8371 206.949 41.355 208.915 40.4487L208.963 40.4358C209.332 40.2678 209.694 40.1364 210.048 40.0415C213.274 39.0736 216.894 41.5719 220.908 47.5363L206.77 54.2748L205.211 50.9657C204.272 49.0086 204.161 46.985 204.878 44.8949Z" fill="#7E95A3"/>
<path d="M211.078 65.8662C213.091 62.9892 215.076 61.0537 217.034 60.0597L225.695 65.0203C226.416 65.4205 226.601 65.9533 226.25 66.6185L225.963 67.1109C222.136 74.4369 218.157 76.925 214.024 74.5754C212.55 73.7663 211.148 72.7523 209.818 71.5333C208.926 70.742 208.68 69.9859 209.08 69.265L209.193 69.0364C209.701 68.1717 210.2 67.3392 210.691 66.5389L210.678 66.5872L211.078 65.8662ZM223.981 68.1328C224.091 67.8516 223.836 67.3865 223.216 66.7373C222.628 66.0967 221.839 65.4366 220.848 64.7569C219.816 64.1008 218.926 63.6209 218.179 63.3173C217.36 63.0286 216.899 63.0087 216.798 63.2577C216.656 63.5302 216.879 63.9867 217.466 64.6273C218.045 65.3001 218.846 65.9806 219.87 66.6689C220.861 67.3486 221.75 67.8285 222.538 68.1085C223.358 68.3972 223.839 68.4053 223.981 68.1328Z" fill="#FFE0B1"/>
<path d="M223.216 66.7373C223.836 67.3865 224.091 67.8516 223.981 68.1328C223.839 68.4053 223.358 68.3972 222.538 68.1085C221.75 67.8285 220.861 67.3486 219.87 66.6689C218.846 65.9806 218.045 65.3001 217.466 64.6273C216.879 63.9868 216.656 63.5302 216.798 63.2577C216.899 63.0088 217.36 63.0286 218.179 63.3173C218.926 63.6209 219.816 64.1008 220.848 64.7569C221.839 65.4366 222.628 66.0967 223.216 66.7373ZM210.691 66.5389C209.445 63.2028 211.559 61.0431 217.033 60.0598C215.076 61.0537 213.091 62.9892 211.078 65.8662L210.678 66.5872L210.691 66.5389Z" fill="#E7CBA0"/>
<path d="M200.799 54.3055C202.025 53.6378 202.911 52.8416 203.456 51.9168L184.322 50.3309C184.707 51.3328 185.449 52.264 186.548 53.1244C188.401 54.5823 190.722 55.427 193.513 55.6582C196.303 55.8895 198.732 55.4386 200.799 54.3055Z" fill="#D7BD93"/>
<path d="M208.804 44.2826C211.806 45.6017 213.859 44.2333 214.964 40.1775C215.146 38.3864 215.28 36.5746 215.365 34.7421C215.425 32.4057 215.371 30.0265 215.204 27.6045C215.017 24.6122 213.445 22.9936 210.489 22.7485L180.243 20.2418C177.32 19.9995 175.5 21.3705 174.785 24.3549C174.205 26.9157 173.756 29.5041 173.439 32.1201C174.978 39.7733 177.542 42.9458 181.129 41.6377C181.918 41.402 182.72 41.201 183.537 41.0345C186.908 40.3105 190.637 40.1178 194.723 40.4565C200.17 40.908 204.864 42.1834 208.804 44.2826Z" fill="#FFE0B1"/>
<path d="M213.685 47.7476C214.259 45.2532 214.686 42.7299 214.964 40.1775C213.859 44.2333 211.806 45.6017 208.804 44.2827C204.864 42.1834 200.17 40.908 194.722 40.4565C190.637 40.1179 186.908 40.3105 183.537 41.0345C182.72 41.201 181.917 41.4021 181.129 41.6377C177.542 42.9459 174.978 39.7734 173.439 32.1201C172.923 36.3252 172.804 40.5799 173.083 44.8842C173.119 45.2551 173.175 45.5942 173.25 45.9014C173.311 46.3747 173.442 46.8037 173.645 47.1884C174.351 48.7521 175.734 49.6193 177.794 49.79L184.321 50.331L203.456 51.9168L208.04 52.2968C210.83 52.528 212.618 51.3383 213.403 48.7276C213.453 48.531 213.501 48.3511 213.548 48.1878C213.595 48.0244 213.64 47.8777 213.685 47.7476Z" fill="#E7E2DA"/>
<path d="M202.545 29.6158L202.475 32.8711L211.132 31.3309C208.917 29.4081 206.054 28.8364 202.545 29.6158ZM192.663 30.2015L193.134 26.9294C189.804 25.5496 186.886 25.6422 184.382 27.2074L192.663 30.2015Z" fill="#544B4B"/>
<path d="M202.577 45.5727C202.851 45.495 203.064 45.3455 203.216 45.1239C203.335 44.8997 203.372 44.6519 203.328 44.3807C203.25 44.1066 203.099 43.9102 202.875 43.7912C202.653 43.6391 202.407 43.5852 202.136 43.6296C198.488 44.4645 195.422 43.9261 192.938 42.0144C192.719 41.8291 192.474 41.7586 192.203 41.803C191.934 41.8142 191.724 41.9305 191.572 42.1521C191.386 42.3708 191.316 42.6158 191.36 42.8871C191.372 43.1556 191.487 43.3825 191.705 43.5679C194.624 45.8835 198.248 46.5518 202.577 45.5727Z" fill="#7F7058"/>
<path d="M190.849 32.7102C190.245 31.9244 189.428 31.4888 188.399 31.4034C187.369 31.3181 186.458 31.6105 185.667 32.2807C184.939 32.9897 184.533 33.8591 184.447 34.8889C184.362 35.9187 184.621 36.8265 185.225 37.6124C185.893 38.437 186.741 38.892 187.771 38.9773C188.801 39.0627 189.68 38.7508 190.407 38.0419C191.199 37.3716 191.637 36.5216 191.722 35.4918C191.808 34.462 191.517 33.5349 190.849 32.7102ZM209.385 34.2465C208.781 33.4606 207.965 33.025 206.935 32.9397C205.905 32.8543 204.994 33.1468 204.203 33.817C203.475 34.526 203.069 35.3954 202.984 36.4252C202.898 37.4549 203.157 38.3628 203.761 39.1487C204.429 39.9733 205.277 40.4282 206.307 40.5136C207.337 40.5989 208.216 40.2871 208.943 39.5782C209.735 38.9079 210.173 38.0579 210.258 37.0281C210.344 35.9983 210.053 35.0711 209.385 34.2465Z" fill="white"/>
<path d="M190.145 37.5687C190.627 37.0065 190.903 36.2936 190.975 35.4299C191.046 34.5662 190.892 33.8009 190.513 33.1339C190.164 32.503 189.69 32.1627 189.092 32.1131C188.494 32.0636 187.955 32.3199 187.473 32.882C187.022 33.4801 186.761 34.211 186.69 35.0747C186.618 35.9384 186.757 36.6858 187.106 37.3167C187.485 37.9837 187.974 38.3419 188.572 38.3915C189.17 38.4411 189.694 38.1668 190.145 37.5687ZM206.937 38.9604C207.419 38.3982 207.695 37.6853 207.767 36.8216C207.839 35.9579 207.685 35.1926 207.305 34.5257C206.956 33.8947 206.482 33.5544 205.884 33.5049C205.287 33.4553 204.747 33.7116 204.265 34.2738C203.815 34.8719 203.553 35.6028 203.482 36.4665C203.41 37.3302 203.549 38.0775 203.898 38.7085C204.277 39.3754 204.766 39.7337 205.364 39.7832C205.962 39.8328 206.487 39.5585 206.937 38.9604Z" fill="#7F7058"/>
<path d="M212.511 4.40326C212.948 4.01081 213.468 3.78636 214.072 3.7299C208.427 2.42588 201.716 2.88979 193.938 5.12164C193.77 5.1411 193.599 5.17716 193.428 5.22983C189.547 6.04541 185.072 7.38028 180.001 9.23444L178.5 12.2206L175.522 10.6191L171.974 17.0982C169.701 21.9268 170.147 28.6532 173.312 37.2773L180.522 22.924C187.26 12.9989 197.923 6.8253 212.511 4.40326ZM211.159 7.40176L213.696 26.426L215.414 34.7463L217.894 18.1446L211.159 7.40176Z" fill="#5D5454"/>
<path d="M198.315 24.9506C203.018 26.4014 208.145 26.8932 213.696 26.426L211.159 7.40177C211.415 6.01338 211.865 5.01388 212.511 4.40327C197.923 6.82531 187.26 12.9989 180.522 22.924C184.217 21.3917 187.944 21.2156 191.704 22.3958C193.662 23.1421 195.259 24.4618 196.493 26.3549L198.315 24.9506Z" fill="#544B4B"/>
<path d="M92.7147 267.743L95.1877 263.459L110.539 272.322L110.564 272.279C111.268 273.409 111.721 274.774 111.921 276.375L110.858 278.217L92.7147 267.743Z" fill="#B8824D"/>
<path d="M95.1875 263.459L95.1438 263.434L96.8255 260.521L112.221 269.409L110.564 272.279L110.539 272.322L95.1875 263.459Z" fill="#2A7DB4"/>
<path d="M105.133 251.268C107.486 250.684 109.724 251.005 111.846 252.23L111.89 252.256C114.012 253.481 115.394 255.25 116.036 257.562C116.691 259.92 116.417 262.141 115.213 264.226L112.221 269.409L96.8255 260.521L99.8178 255.338C101.021 253.253 102.793 251.897 105.133 251.268Z" fill="#3498DB"/>
<path d="M133.094 196.272C135.766 195.318 138.585 195.183 141.55 195.866C142.318 201.986 142.012 208.134 140.632 214.31L127.318 211.152C128.724 205.963 130.649 201.003 133.094 196.272Z" fill="#FFE0B1"/>
<path d="M141.129 214.419L140.392 217.337L125.155 213.718C124.526 213.002 124.772 212.029 125.893 210.8L127.318 211.152L140.632 214.31L141.129 214.419Z" fill="#25A85C"/>
<path d="M130.094 226.768L130.048 226.748C129.664 226.659 129.294 226.552 128.938 226.425C125.827 225.122 124.566 220.886 125.155 213.718L140.392 217.337L139.548 220.867C139.05 222.993 137.867 224.652 135.999 225.846C134.158 226.979 132.19 227.286 130.094 226.768Z" fill="#2ECC71"/>
<path d="M135.187 251.089V247.006L100.239 252.907V256.99L135.187 251.089Z" fill="#B8824D"/>
<path d="M135.187 220.089L100.239 225.99V252.907L135.187 247.006V220.089Z" fill="#2ECC71"/>
<path d="M78.3063 242.985C78.6849 245.797 79.8582 248.363 81.8263 250.683C87.6162 248.557 92.9381 245.464 97.7922 241.404L88.8756 231.024C84.9114 234.655 81.3883 238.642 78.3063 242.985Z" fill="#FFE0B1"/>
<path d="M98.1167 241.796L100.371 239.802L90.1635 227.925C89.2385 227.695 88.4873 228.36 87.9097 229.92L88.8757 231.024L97.7923 241.404L98.1167 241.796Z" fill="#25A85C"/>
<path d="M104.024 226.324L103.985 226.293C103.73 225.992 103.465 225.713 103.189 225.454C100.603 223.289 96.2616 224.112 90.1635 227.925L100.371 239.802L103.12 237.432C104.78 236.014 105.711 234.201 105.915 231.993C106.076 229.838 105.446 227.948 104.024 226.324Z" fill="#2ECC71"/>
<path d="M88.9646 247.579C89.199 249.762 88.6596 252.482 87.3463 255.738L86.9603 256.467L86.9938 256.43C90.4693 255.654 91.1262 252.704 88.9646 247.579ZM79.2163 247.356C79.8806 247.863 80.768 248.347 81.8783 248.807C83.0134 249.289 84.0207 249.59 84.9003 249.708C85.7577 249.851 86.2619 249.789 86.4128 249.521C86.5663 249.301 86.2984 248.925 85.6093 248.396C84.9474 247.935 84.0601 247.452 82.9473 246.944C81.837 246.484 80.8531 246.183 79.9958 246.04C79.1136 245.874 78.5847 245.914 78.409 246.16C78.258 246.427 78.5271 246.826 79.2163 247.356Z" fill="#E7CBA0"/>
<path d="M87.3462 255.738C88.6595 252.482 89.1989 249.762 88.9645 247.579L80.0827 243.026C79.354 242.64 78.8066 242.775 78.4404 243.432L78.1843 243.941C74.1311 251.144 74.2162 255.837 78.4396 258.019C79.9218 258.813 81.5364 259.435 83.2834 259.885C84.4332 260.201 85.2012 259.995 85.5871 259.266L85.7171 259.047C86.1649 258.15 86.5904 257.277 86.9936 256.43L86.9602 256.467L87.3462 255.738ZM81.8782 248.807C80.7679 248.347 79.8805 247.863 79.2162 247.356C78.527 246.826 78.2579 246.427 78.4089 246.16C78.5846 245.914 79.1135 245.874 79.9957 246.04C80.853 246.183 81.8369 246.484 82.9472 246.944C84.06 247.452 84.9473 247.935 85.6091 248.396C86.2983 248.925 86.5661 249.301 86.4127 249.521C86.2617 249.789 85.7576 249.851 84.9002 249.708C84.0206 249.59 83.0132 249.289 81.8782 248.807Z" fill="#FFE0B1"/>
<path d="M136.823 207.078C138.977 207.499 141.733 207.194 145.09 206.164L145.849 205.842L145.809 205.872C144.739 209.268 141.743 209.67 136.823 207.078ZM137.434 197.347C137.883 198.052 138.289 198.977 138.652 200.123C139.036 201.295 139.249 202.325 139.291 203.211C139.361 204.078 139.255 204.574 138.976 204.702C138.743 204.836 138.392 204.537 137.923 203.805C137.521 203.106 137.115 202.181 136.705 201.029C136.342 199.883 136.126 198.877 136.056 198.011C135.967 197.118 136.052 196.594 136.312 196.44C136.592 196.312 136.966 196.615 137.434 197.347Z" fill="#E7CBA0"/>
<path d="M145.09 206.164C141.733 207.194 138.977 207.498 136.823 207.078L133.046 197.839C132.724 197.08 132.906 196.546 133.591 196.238L134.121 196.026C141.644 192.605 146.312 193.091 148.125 197.486C148.789 199.03 149.27 200.692 149.569 202.471C149.786 203.644 149.515 204.391 148.755 204.714L148.526 204.824C147.594 205.194 146.688 205.543 145.809 205.872L145.849 205.842L145.09 206.164ZM138.652 200.123C138.289 198.977 137.883 198.052 137.434 197.347C136.966 196.615 136.591 196.312 136.312 196.44C136.052 196.594 135.967 197.117 136.056 198.011C136.126 198.877 136.342 199.883 136.705 201.029C137.115 202.181 137.521 203.106 137.923 203.805C138.392 204.537 138.743 204.836 138.976 204.702C139.255 204.574 139.361 204.077 139.291 203.211C139.249 202.325 139.036 201.295 138.652 200.123Z" fill="#FFE0B1"/>
<path d="M117.869 262.9L119.149 258.122L135.091 262.909L135.103 262.861C135.998 263.784 136.717 264.998 137.259 266.503L136.709 268.557L117.869 262.9Z" fill="#B8824D"/>
<path d="M119.149 258.122L119.104 258.109L119.974 254.86L135.961 259.66L135.104 262.861L135.091 262.909L119.149 258.122Z" fill="#2A7DB4"/>
<path d="M125.433 243.8C127.438 242.647 129.543 242.402 131.747 243.063L131.792 243.077C133.996 243.739 135.651 245.113 136.755 247.2C137.882 249.328 138.133 251.554 137.51 253.879L135.961 259.66L119.974 254.86L121.523 249.079C122.146 246.754 123.45 244.994 125.433 243.8Z" fill="#3498DB"/>
<path d="M113.852 230.972C116.626 230.597 118.901 229.634 120.676 228.083C121.73 227.167 122.423 226.199 122.756 225.179L103.729 227.748C104.321 228.643 105.247 229.393 106.505 229.997C108.628 231.022 111.077 231.347 113.852 230.972Z" fill="#D7BD93"/>
<path d="M128.996 198.908C128.17 196.026 126.286 194.784 123.347 195.181L93.2708 199.242C90.364 199.635 88.8823 201.365 88.8257 204.434C88.7537 211.372 89.6726 218.177 91.5824 224.848C92.4463 227.758 94.3317 229.017 97.2385 228.624L103.729 227.748L122.756 225.179L127.314 224.563C130.254 224.166 131.752 222.433 131.809 219.365C131.932 212.554 130.994 205.735 128.996 198.908Z" fill="#FFE0B1"/>
<path d="M107.957 213.101C107.819 212.077 107.335 211.234 106.506 210.573C105.747 209.935 104.855 209.686 103.831 209.824C102.807 209.962 101.981 210.444 101.353 211.269C100.794 212.117 100.585 213.054 100.723 214.078C100.861 215.102 101.31 215.933 102.068 216.57C102.898 217.232 103.824 217.493 104.848 217.355C105.872 217.217 106.663 216.723 107.221 215.874C107.85 215.049 108.095 214.125 107.957 213.101ZM124.938 208.084C124.179 207.446 123.287 207.196 122.263 207.335C121.239 207.473 120.413 207.955 119.785 208.779C119.226 209.628 119.017 210.565 119.155 211.589C119.293 212.613 119.742 213.444 120.5 214.081C121.33 214.743 122.256 215.004 123.28 214.866C124.304 214.728 125.095 214.234 125.653 213.385C126.282 212.56 126.527 211.636 126.389 210.612C126.251 209.588 125.767 208.745 124.938 208.084Z" fill="white"/>
<path d="M106.949 207.132C107.108 207.313 107.338 207.399 107.64 207.392C107.909 207.39 108.148 207.29 108.356 207.094C108.532 206.902 108.635 206.669 108.666 206.396C108.63 206.132 108.514 205.895 108.318 205.686C107.186 204.527 105.799 203.975 104.159 204.028C103.051 204.043 102.045 204.314 101.14 204.839C100.922 204.97 100.765 205.176 100.669 205.458C100.572 205.74 100.622 205.986 100.819 206.194C100.916 206.417 101.122 206.574 101.437 206.666C101.653 206.771 101.899 206.721 102.174 206.516C102.77 206.2 103.438 206.043 104.178 206.043C105.286 206.028 106.21 206.391 106.949 207.132ZM123.406 203.094C122.428 202.822 121.386 202.829 120.28 203.112C118.651 203.501 117.478 204.399 116.76 205.808C116.593 206.066 116.541 206.308 116.606 206.535C116.674 206.795 116.835 206.991 117.089 207.125C117.309 207.264 117.568 207.313 117.866 207.273C118.125 207.204 118.322 207.043 118.456 206.789C118.944 205.916 119.724 205.34 120.796 205.061C121.509 204.864 122.195 204.838 122.854 204.985C123.174 205.11 123.438 205.074 123.647 204.878C123.898 204.743 124.057 204.553 124.125 204.309C124.226 204.059 124.192 203.812 124.025 203.565C123.857 203.319 123.651 203.162 123.406 203.094Z" fill="#B8824D"/>
<path d="M119.8 219.725C120.05 219.591 120.226 219.399 120.327 219.15C120.395 218.905 120.378 218.655 120.276 218.4C120.142 218.149 119.952 217.989 119.707 217.922C119.458 217.821 119.206 217.821 118.951 217.923C115.568 219.523 112.458 219.657 109.621 218.325C109.367 218.191 109.113 218.175 108.858 218.277C108.598 218.346 108.417 218.504 108.317 218.753C108.183 219.007 108.167 219.261 108.268 219.517C108.337 219.777 108.498 219.973 108.752 220.107C112.1 221.741 115.783 221.613 119.8 219.725Z" fill="#7F7058"/>
<path d="M105.505 216.611C106.099 216.53 106.552 216.15 106.864 215.468C107.213 214.816 107.33 214.06 107.214 213.201C107.098 212.342 106.783 211.628 106.268 211.059C105.792 210.518 105.256 210.287 104.662 210.367C104.067 210.448 103.595 210.814 103.246 211.467C102.934 212.148 102.837 212.918 102.953 213.777C103.069 214.636 103.365 215.335 103.842 215.877C104.356 216.446 104.91 216.691 105.505 216.611ZM119.944 209.212C119.632 209.893 119.534 210.663 119.65 211.522C119.766 212.381 120.063 213.081 120.539 213.622C121.053 214.191 121.608 214.436 122.202 214.356C122.797 214.275 123.25 213.895 123.562 213.214C123.911 212.561 124.027 211.805 123.911 210.946C123.796 210.088 123.48 209.373 122.966 208.804C122.49 208.263 121.954 208.032 121.359 208.113C120.765 208.193 120.293 208.559 119.944 209.212Z" fill="#7F7058"/>
<path d="M92.4562 188.354L90.218 193.449L86.1279 197.533C85.7022 206.335 87.2414 214.62 90.7456 222.388C93.6009 218.874 94.7147 213.174 94.087 205.287C95.6549 193.236 107.398 181.812 129.316 171.016C113.112 176.803 100.825 182.582 92.4562 188.354Z" fill="#B8824D"/>
<path d="M111.195 201.211C116.925 202.052 122.884 201.97 129.072 200.966L131.147 208.859C132.949 199.535 133.076 193.127 131.528 189.636C129.392 184.779 128.655 178.572 129.316 171.016C107.398 181.812 95.655 193.236 94.0871 205.287C98.4066 201.408 104.109 200.049 111.195 201.211Z" fill="#C48A51"/>
<path d="M304.33 131.641L292.042 134.539C290.963 136.727 290.471 139.146 290.564 141.795C296.053 141.552 301.466 142.217 306.804 143.791L304.33 131.641Z" fill="#FFE0B1"/>
<path d="M306.804 143.791C307.442 143.996 308.084 144.209 308.731 144.429L308.147 130.722L304.33 131.641L306.804 143.791Z" fill="#FCF7EE"/>
<path d="M308.731 144.429L308.744 144.939L311.712 144.776L311.101 129.127C310.523 128.37 309.517 128.428 308.083 129.301L308.148 130.722L308.731 144.429Z" fill="#2E88C4"/>
<path d="M320.837 142.085C322.312 140.486 322.993 138.605 322.881 136.443L322.87 136.394C322.847 135.99 322.795 135.608 322.715 135.251C322.074 131.945 318.203 129.904 311.1 129.127L311.712 144.776L315.344 144.617C317.5 144.536 319.331 143.693 320.837 142.085Z" fill="#3498DB"/>
<path d="M331.823 167.828L332.37 161.928C332.592 159.754 333.453 157.954 334.953 156.528C336.392 155.195 338.065 154.528 339.972 154.528H340.021C341.937 154.528 343.593 155.195 344.99 156.528C346.448 157.954 347.26 159.754 347.425 161.928L347.822 167.828H331.823Z" fill="#B8824D"/>
<path d="M331.426 171.528L331.823 167.828H347.822L348.071 171.478V171.528H331.475H331.426Z" fill="#9F7042"/>
<path d="M330.879 177.528L331.475 171.528H348.07V171.478C349.237 172.184 350.364 173.3 351.449 174.828L351.698 177.528H330.879Z" fill="#D4D0C9"/>
<path d="M326.705 167.828L326.159 161.928C325.936 159.754 325.075 157.954 323.575 156.528C322.136 155.195 320.464 154.528 318.557 154.528H318.507C316.591 154.528 314.935 155.195 313.538 156.528C312.08 157.954 311.268 159.754 311.104 161.928L310.706 167.828H326.705Z" fill="#B8824D"/>
<path d="M327.103 171.528L326.706 167.828H310.706L310.458 171.478V171.528H327.053H327.103Z" fill="#9F7042"/>
<path d="M327.649 177.528L327.053 171.528H310.458V171.478C309.291 172.184 308.164 173.3 307.079 174.828L306.831 177.528H327.649Z" fill="#D4D0C9"/>
<path d="M346.182 158.728C345.562 160.474 344.402 161.841 342.704 162.828C333.264 161.247 323.823 161.247 314.383 162.828C313.124 161.72 312.213 160.353 311.65 158.728C323.016 157.53 334.526 157.53 346.182 158.728Z" fill="#D9D6BF"/>
<path d="M311.004 152.128C311.926 145.999 311.38 139.233 309.364 131.828H348.12C345.567 138.996 345.004 146.012 346.431 152.878C346.803 155.156 346.72 157.106 346.182 158.728C334.526 157.53 323.015 157.53 311.65 158.728C310.983 156.873 310.768 154.673 311.004 152.128Z" fill="#3498DB"/>
<path d="M315.079 137.228C315.311 136.961 315.542 136.695 315.774 136.428C315.84 136.328 315.94 136.278 316.072 136.278C316.172 136.278 316.271 136.311 316.37 136.378C316.47 136.445 316.52 136.545 316.52 136.678C316.586 136.778 316.586 136.895 316.52 137.028C316.089 137.995 316.056 138.995 316.42 140.028V139.978C316.983 141.445 318.159 142.495 319.948 143.128C321.737 143.728 323.641 143.761 325.662 143.228C325.827 143.128 326.01 143.061 326.208 143.028C326.308 142.995 326.391 143.011 326.457 143.078C326.589 143.145 326.672 143.228 326.705 143.328C326.738 143.428 326.738 143.545 326.705 143.678C326.705 143.778 326.656 143.861 326.556 143.928C325.695 144.628 324.618 145.178 323.327 145.578H323.376C321.356 146.245 319.434 146.278 317.613 145.678C315.758 145.011 314.565 143.828 314.035 142.128V142.178C313.538 140.578 313.886 138.928 315.079 137.228ZM341.015 137.578C341.114 137.578 341.197 137.628 341.263 137.728C341.562 138.028 341.777 138.328 341.909 138.628C343.168 140.395 343.516 142.061 342.953 143.628V143.578C342.489 145.278 341.313 146.345 339.425 146.778C337.603 147.211 335.665 146.978 333.612 146.078C332.419 145.545 331.376 144.895 330.481 144.128C330.382 144.061 330.316 143.978 330.283 143.878C330.283 143.745 330.299 143.628 330.332 143.528C330.366 143.428 330.432 143.345 330.531 143.278C330.664 143.211 330.763 143.195 330.829 143.228C331.028 143.261 331.194 143.328 331.326 143.428C333.38 144.228 335.318 144.411 337.139 143.978C338.895 143.545 340.054 142.645 340.618 141.278C340.982 140.311 340.965 139.311 340.568 138.278C340.535 138.178 340.518 138.078 340.518 137.978C340.551 137.845 340.601 137.745 340.667 137.678C340.767 137.611 340.883 137.578 341.015 137.578Z" fill="#2E88C4"/>
<path d="M358.256 148.178L358.157 160.878C356.274 162.419 354.038 163.436 351.449 163.928C350.475 158.488 348.637 153.321 345.934 148.428L358.256 148.178Z" fill="#FFE0B1"/>
<path d="M345.934 148.428C345.595 147.848 345.247 147.265 344.891 146.678L358.306 144.228L358.256 148.178L345.934 148.428Z" fill="#FCF7EE"/>
<path d="M344.891 146.678L344.394 146.778L343.897 143.828L359.2 140.978C360.062 141.378 360.227 142.378 359.697 143.978L358.306 144.228L344.891 146.678Z" fill="#2E88C4"/>
<path d="M344.493 134.278C345.719 132.478 347.392 131.395 349.512 131.028H349.561C349.959 130.962 350.34 130.928 350.704 130.928C354.05 130.828 356.882 134.178 359.2 140.978L343.897 143.828L343.251 140.228C342.854 138.095 343.268 136.112 344.493 134.278Z" fill="#3498DB"/>
<path d="M343.3 163.228V163.178C341.247 160.278 342.721 157.645 347.723 155.278C346.099 156.745 344.692 159.128 343.499 162.428L343.3 163.228ZM356.467 161.278C356.401 161.578 355.937 161.695 355.076 161.628C354.248 161.561 353.271 161.328 352.145 160.928C350.985 160.528 350.041 160.078 349.313 159.578C348.584 159.111 348.253 158.728 348.319 158.428C348.352 158.161 348.799 158.061 349.66 158.128C350.455 158.228 351.433 158.461 352.592 158.828C353.718 159.228 354.646 159.661 355.374 160.128C356.136 160.595 356.501 160.978 356.467 161.278Z" fill="#E7CBA0"/>
<path d="M343.3 163.178V163.228L343.499 162.428C344.692 159.128 346.099 156.745 347.722 155.278L357.312 157.828C358.107 158.028 358.422 158.495 358.256 159.228L358.107 159.778C356.318 167.845 353.138 171.278 348.567 170.078C346.944 169.678 345.337 169.061 343.748 168.228C342.688 167.695 342.257 167.028 342.456 166.228L342.505 165.978C342.77 165.011 343.035 164.078 343.3 163.178ZM355.076 161.628C355.937 161.695 356.401 161.578 356.467 161.278C356.5 160.978 356.136 160.595 355.374 160.128C354.645 159.661 353.718 159.228 352.592 158.828C351.432 158.461 350.455 158.228 349.66 158.128C348.799 158.061 348.352 158.161 348.319 158.428C348.252 158.728 348.584 159.111 349.312 159.578C350.041 160.078 350.985 160.528 352.145 160.928C353.271 161.328 354.248 161.561 355.076 161.628Z" fill="#FFE0B1"/>
<path d="M290.031 129.28L290.079 129.267C292.331 126.52 295.24 127.272 298.806 131.521C296.978 130.323 294.326 129.571 290.85 129.266L290.031 129.28ZM295.31 141.574C295.005 141.587 294.773 141.167 294.614 140.312C294.464 139.49 294.435 138.48 294.527 137.282C294.611 136.051 294.799 135.017 295.09 134.179C295.349 133.35 295.632 132.929 295.937 132.916C296.201 132.879 296.413 133.288 296.572 134.142C296.682 134.941 296.711 135.951 296.659 137.173C296.566 138.371 296.39 139.385 296.131 140.214C295.88 141.075 295.607 141.528 295.31 141.574Z" fill="#E7CBA0"/>
<path d="M290.079 129.267L290.031 129.28L290.85 129.266C294.326 129.571 296.978 130.323 298.806 131.521L298.841 141.502C298.854 142.327 298.488 142.753 297.741 142.782L297.175 142.779C288.969 143.129 284.85 140.926 284.819 136.173C284.783 134.491 284.959 132.77 285.347 131.009C285.585 129.841 286.113 129.25 286.933 129.236L287.186 129.219C288.182 129.227 289.146 129.243 290.079 129.267ZM294.614 140.312C294.773 141.167 295.005 141.587 295.311 141.574C295.607 141.528 295.881 141.075 296.131 140.214C296.391 139.385 296.567 138.371 296.659 137.173C296.711 135.951 296.682 134.941 296.572 134.142C296.413 133.288 296.202 132.879 295.937 132.916C295.632 132.929 295.35 133.35 295.09 134.179C294.799 135.017 294.612 136.051 294.528 137.282C294.435 138.48 294.464 139.49 294.614 140.312Z" fill="#FFE0B1"/>
<path d="M325.549 134.553C324.37 133.817 323.536 132.973 323.047 132.019L342.119 131.508C341.681 132.486 340.893 133.374 339.754 134.172C337.835 135.524 335.484 136.237 332.703 136.312C329.922 136.386 327.537 135.8 325.549 134.553Z" fill="#D7BD93"/>
<path d="M312.745 107.087C313.096 104.11 314.742 101.181 317.681 98.3016C326.623 89.4789 336.677 90.6099 347.841 101.695C350.755 101.616 352.484 103.087 353.028 106.107C353.765 110.407 354.162 114.114 354.217 117.229C352.149 123.564 348.116 128.323 342.119 131.508L323.047 132.019C317.747 129.473 314.155 125.235 312.273 119.303C312.075 115.299 312.232 111.227 312.745 107.087Z" fill="#FFE0B1"/>
<path d="M340.39 105.646C338.623 103.959 337.706 101.883 337.641 99.4172C337.576 96.9515 338.381 94.8292 340.057 93.0504C341.733 91.2715 343.796 90.3493 346.246 90.2836C348.697 90.2179 350.806 91.0283 352.573 92.7149C354.341 94.4014 355.257 96.4775 355.323 98.9432C355.388 101.409 354.583 103.531 352.907 105.31C351.231 107.089 349.168 108.011 346.717 108.077C344.267 108.142 342.158 107.332 340.39 105.646Z" fill="#9F7042"/>
<path d="M340.337 114.9C339.724 114.25 338.969 113.903 338.073 113.86L343.382 113.518L341.473 118.371C341.499 118.103 341.509 117.836 341.501 117.57C341.474 116.537 341.086 115.647 340.337 114.9ZM321.385 114.308C320.493 114.398 319.757 114.785 319.179 115.467C318.471 116.253 318.13 117.162 318.158 118.195C318.165 118.462 318.188 118.728 318.229 118.994L316.065 114.25L321.385 114.308Z" fill="#BFA984"/>
<path d="M337.775 113.868C337.874 113.866 337.974 113.863 338.073 113.86C338.969 113.903 339.724 114.25 340.337 114.9C341.086 115.647 341.474 116.537 341.501 117.57C341.508 117.836 341.499 118.103 341.473 118.371C341.326 119.075 340.995 119.701 340.479 120.248C339.837 121.032 339.003 121.438 337.976 121.465C336.95 121.493 336.062 121.133 335.313 120.386C334.632 119.671 334.277 118.797 334.25 117.764C334.223 116.731 334.53 115.823 335.172 115.038C335.881 114.286 336.749 113.896 337.775 113.868ZM339.015 117.536C338.966 116.937 338.738 116.427 338.329 116.004C337.92 115.582 337.417 115.378 336.821 115.394C336.225 115.41 335.718 115.641 335.299 116.085C334.946 116.528 334.761 117.05 334.744 117.651L334.751 117.901C334.799 118.466 335.01 118.944 335.385 119.334C335.828 119.789 336.347 120.009 336.943 119.993C337.539 119.977 338.03 119.73 338.415 119.253C338.801 118.842 339.004 118.354 339.022 117.786L339.015 117.536ZM319.179 115.467C319.757 114.785 320.493 114.398 321.385 114.308C321.484 114.305 321.584 114.302 321.683 114.3C322.709 114.272 323.596 114.615 324.344 115.329C325.027 116.077 325.382 116.968 325.409 118.001C325.436 119.034 325.129 119.926 324.486 120.677C323.778 121.463 322.91 121.869 321.884 121.897C320.857 121.924 320.003 121.564 319.32 120.815C318.777 120.296 318.413 119.689 318.228 118.994C318.188 118.728 318.165 118.462 318.158 118.195C318.13 117.162 318.471 116.253 319.179 115.467ZM320.638 118.029L320.645 118.279C320.693 118.844 320.921 119.322 321.329 119.711C321.739 120.167 322.242 120.387 322.838 120.371C323.434 120.355 323.941 120.108 324.359 119.63C324.712 119.22 324.898 118.732 324.916 118.164L324.91 117.914C324.861 117.315 324.648 116.804 324.273 116.381C323.831 115.959 323.312 115.756 322.716 115.772C322.12 115.788 321.629 116.018 321.243 116.462C320.857 116.906 320.656 117.428 320.638 118.029Z" fill="white"/>
<path d="M338.329 116.004C338.737 116.427 338.966 116.937 339.015 117.536L339.022 117.786C339.004 118.354 338.801 118.842 338.415 119.253C338.03 119.73 337.539 119.977 336.943 119.993C336.347 120.009 335.828 119.789 335.385 119.334C335.01 118.944 334.799 118.466 334.75 117.901L334.744 117.651C334.761 117.05 334.946 116.528 335.299 116.085C335.718 115.641 336.225 115.41 336.821 115.394C337.417 115.378 337.92 115.582 338.329 116.004ZM320.645 118.279L320.638 118.029C320.655 117.428 320.857 116.906 321.243 116.462C321.629 116.018 322.12 115.788 322.716 115.773C323.312 115.757 323.831 115.959 324.273 116.381C324.648 116.804 324.861 117.316 324.91 117.914L324.916 118.164C324.898 118.732 324.712 119.22 324.359 119.63C323.941 120.108 323.433 120.355 322.837 120.371C322.241 120.387 321.739 120.167 321.329 119.711C320.921 119.322 320.693 118.844 320.645 118.279Z" fill="#7F7058"/>
<path d="M319.193 112.544C318.18 112.505 317.309 112.518 316.578 112.582C318.613 111.187 321.006 110.582 323.755 110.765C324.093 110.777 324.327 110.868 324.457 111.037C324.651 111.221 324.746 111.466 324.741 111.773C324.712 112.041 324.602 112.288 324.411 112.516C324.243 112.647 322.504 112.657 319.193 112.544Z" fill="#B8824D"/>
<path d="M341.449 112.459C340.745 112.53 339.891 112.681 338.888 112.911C335.65 113.53 333.944 113.778 333.77 113.656C333.513 113.49 333.363 113.274 333.319 113.009C333.257 112.68 333.307 112.439 333.469 112.286C333.603 112.037 333.802 111.891 334.065 111.847C336.78 111.211 339.241 111.414 341.449 112.459Z" fill="#B8824D"/>
<path d="M340.502 124.899C339.961 124.48 339.683 123.987 339.668 123.421C339.651 122.788 339.902 122.247 340.42 121.8C340.873 121.388 341.431 121.173 342.093 121.155C342.789 121.136 343.39 121.32 343.897 121.707C344.372 122.128 344.618 122.654 344.635 123.288C344.65 123.854 344.431 124.36 343.979 124.806C343.494 125.252 342.904 125.485 342.208 125.503C341.546 125.521 340.978 125.32 340.502 124.899Z" fill="white" fill-opacity="0.301961"/>
<path d="M316.116 125.552C315.575 125.134 315.296 124.641 315.281 124.074C315.265 123.441 315.515 122.901 316.034 122.454C316.487 122.041 317.044 121.826 317.707 121.809C318.402 121.79 319.003 121.974 319.51 122.36C319.986 122.781 320.231 123.308 320.248 123.941C320.263 124.508 320.045 125.014 319.592 125.459C319.107 125.906 318.517 126.138 317.822 126.157C317.159 126.175 316.591 125.973 316.116 125.552Z" fill="white" fill-opacity="0.301961"/>
<path d="M334.009 123.837C334.184 123.704 334.374 123.66 334.58 123.706C334.785 123.727 334.94 123.825 335.047 124.002C335.179 124.178 335.223 124.37 335.177 124.577C335.157 124.783 335.059 124.952 334.884 125.085C332.554 126.741 329.755 127.098 326.488 126.158C326.282 126.087 326.125 125.963 326.018 125.786C325.937 125.608 325.919 125.416 325.965 125.209C326.036 125.002 326.16 124.857 326.336 124.775C326.512 124.668 326.703 124.637 326.908 124.683C329.661 125.482 332.028 125.201 334.009 123.837Z" fill="#7F7058"/>
<path d="M324.074 91.9783C326.21 91.3208 328.029 91.172 329.529 91.5319C331.533 90.878 333.53 90.5744 335.519 90.6211C335.684 90.5834 335.849 90.5623 336.015 90.5578C336.379 90.5481 336.694 90.573 336.961 90.6325C338.29 90.7636 339.54 91.0302 340.71 91.4323C345.921 93.0265 350.123 96.5317 353.315 101.948C354.594 103.948 355.544 106.056 356.166 108.274C356.849 110.289 357.286 112.395 357.476 114.591C357.483 114.824 357.49 115.107 357.499 115.44C357.349 113.544 356.953 111.704 356.309 109.92C355.655 107.737 354.687 105.612 353.407 103.546C349.454 96.9165 343.986 93.1284 337.002 92.1819C336.636 92.125 336.271 92.1181 335.908 92.1612C333.82 92.1505 331.708 92.4739 329.572 93.1313C328.103 92.7039 326.267 92.8364 324.065 93.529C316.801 95.7244 312.498 100.925 311.158 109.13C311.118 110.131 311.03 111.167 310.892 112.238C310.91 111.671 310.929 111.137 310.949 110.636C311.019 109.5 311.122 108.414 311.261 107.377C312.537 99.2731 316.808 94.1403 324.074 91.9783Z" fill="#C68C53"/>
<path d="M329.347 103.441C329.699 104.198 330.034 104.956 330.352 105.714L316.605 110.234C314.07 111.206 313.287 113.511 314.253 117.15C315.143 120.758 314.894 124.483 313.505 128.323C312.234 127.62 311.59 125.203 311.573 121.073L310.858 112.839C310.886 112.638 310.897 112.438 310.892 112.238C311.029 111.167 311.118 110.131 311.158 109.13C312.498 100.925 316.8 95.7243 324.065 93.5289C326.267 92.8364 328.102 92.7038 329.572 93.1312C331.708 92.4738 333.82 92.1504 335.908 92.1611C336.271 92.118 336.636 92.1249 337.002 92.1818C343.985 93.1283 349.454 96.9164 353.406 103.546C354.687 105.612 355.655 107.737 356.309 109.92C356.952 111.704 357.349 113.544 357.499 115.44C357.502 115.573 357.507 115.74 357.512 115.94C357.338 125.388 354.146 130.592 347.935 131.552C348.443 124.752 346.657 120.515 342.578 118.841L344.355 110.841C338.727 109.791 333.436 106.432 328.481 100.763C328.48 100.696 328.446 100.664 328.379 100.666C328.735 101.59 329.058 102.515 329.347 103.441Z" fill="#B8824D"/>
<path d="M330.353 105.714C330.034 104.956 329.7 104.198 329.348 103.441C329.059 102.515 328.736 101.59 328.38 100.666C328.446 100.664 328.48 100.696 328.482 100.763C333.437 106.432 338.728 109.791 344.355 110.841L342.579 118.841L342.582 118.941C337.519 116.709 333.443 112.301 330.353 105.714Z" fill="#AD7A48"/>
<path d="M110.128 143.4H124.144V153H97.584V107.88H110.128V143.4ZM135.358 113.768C133.139 113.768 131.347 113.171 129.982 111.976C128.659 110.739 127.998 109.203 127.998 107.368C127.998 105.491 128.659 103.933 129.982 102.696C131.347 101.459 133.139 100.84 135.358 100.84C137.534 100.84 139.283 101.459 140.606 102.696C141.971 103.933 142.654 105.491 142.654 107.368C142.654 109.203 141.971 110.739 140.606 111.976C139.283 113.171 137.534 113.768 135.358 113.768ZM141.566 117.096V153H129.022V117.096H141.566ZM172.197 116.776C176.336 116.776 179.621 118.163 182.053 120.936C184.485 123.667 185.701 127.379 185.701 132.072V153H173.157V133.736C173.157 131.688 172.624 130.088 171.557 128.936C170.49 127.741 169.061 127.144 167.269 127.144C165.392 127.144 163.92 127.741 162.853 128.936C161.786 130.088 161.253 131.688 161.253 133.736V153H148.709V117.096H161.253V122.216C162.362 120.595 163.856 119.293 165.733 118.312C167.61 117.288 169.765 116.776 172.197 116.776ZM205.832 116.648C208.264 116.648 210.376 117.139 212.168 118.12C214.003 119.101 215.411 120.424 216.392 122.088V117.096H228.936V152.616C228.936 155.987 228.296 159.016 227.016 161.704C225.736 164.435 223.731 166.611 221 168.232C218.312 169.853 214.899 170.664 210.76 170.664C205.213 170.664 200.776 169.363 197.448 166.76C194.12 164.157 192.221 160.616 191.752 156.136H204.104C204.36 157.288 205 158.184 206.024 158.824C207.048 159.464 208.371 159.784 209.992 159.784C214.259 159.784 216.392 157.395 216.392 152.616V148.008C215.411 149.672 214.003 150.995 212.168 151.976C210.376 152.957 208.264 153.448 205.832 153.448C202.973 153.448 200.371 152.701 198.024 151.208C195.72 149.715 193.885 147.581 192.52 144.808C191.197 141.992 190.536 138.728 190.536 135.016C190.536 131.304 191.197 128.061 192.52 125.288C193.885 122.515 195.72 120.381 198.024 118.888C200.371 117.395 202.973 116.648 205.832 116.648ZM216.392 135.016C216.392 132.712 215.752 130.899 214.472 129.576C213.235 128.253 211.699 127.592 209.864 127.592C207.987 127.592 206.429 128.253 205.192 129.576C203.955 130.856 203.336 132.669 203.336 135.016C203.336 137.32 203.955 139.155 205.192 140.52C206.429 141.843 207.987 142.504 209.864 142.504C211.699 142.504 213.235 141.843 214.472 140.52C215.752 139.197 216.392 137.363 216.392 135.016ZM252.788 153.448C249.204 153.448 245.983 152.701 243.124 151.208C240.308 149.715 238.089 147.581 236.468 144.808C234.847 142.035 234.036 138.771 234.036 135.016C234.036 131.304 234.847 128.061 236.468 125.288C238.132 122.515 240.372 120.381 243.188 118.888C246.047 117.395 249.268 116.648 252.852 116.648C256.436 116.648 259.636 117.395 262.452 118.888C265.311 120.381 267.551 122.515 269.172 125.288C270.836 128.061 271.668 131.304 271.668 135.016C271.668 138.728 270.836 141.992 269.172 144.808C267.551 147.581 265.311 149.715 262.452 151.208C259.593 152.701 256.372 153.448 252.788 153.448ZM252.788 142.568C254.537 142.568 255.988 141.928 257.14 140.648C258.335 139.325 258.932 137.448 258.932 135.016C258.932 132.584 258.335 130.728 257.14 129.448C255.988 128.168 254.559 127.528 252.852 127.528C251.145 127.528 249.716 128.168 248.564 129.448C247.412 130.728 246.836 132.584 246.836 135.016C246.836 137.491 247.391 139.368 248.5 140.648C249.609 141.928 251.039 142.568 252.788 142.568Z" fill="#2ECC71"/>
</svg>
