<svg width="51" height="56" viewBox="0 0 51 56" fill="none" xmlns="http://www.w3.org/2000/svg">
<path d="M46.351 48.4156C46.9438 41.6293 46.4791 34.7617 44.9569 27.8127C44.3314 24.8805 42.5384 23.511 39.5781 23.7041L9.29242 25.6797C6.36531 25.8707 4.76765 27.4948 4.49942 30.552C3.94852 37.4692 4.3955 44.3213 5.84036 51.1084C6.50132 54.0716 8.29535 55.4578 11.2225 55.2668L17.7586 54.8405L36.9178 53.5907L41.5081 53.2912C44.4685 53.0981 46.0828 51.4729 46.351 48.4156Z" fill="#FFE0B1"/>
<path d="M21.714 37.8971C21.001 37.2087 20.129 36.8981 19.0978 36.9654C18.0667 37.0326 17.2091 37.456 16.525 38.2355C15.9097 39.044 15.6357 39.9638 15.7029 40.9949C15.7702 42.0261 16.1603 42.8858 16.8733 43.5742C17.655 44.2915 18.5614 44.6165 19.5925 44.5493C20.6237 44.482 21.4469 44.0441 22.0623 43.2357C22.7463 42.4562 23.0547 41.5509 22.9874 40.5197C22.9202 39.4886 22.4957 38.6144 21.714 37.8971ZM30.527 47.7944L30.3317 44.8007L23.4962 45.2466C23.2966 45.2597 23.118 45.3381 22.9604 45.482C22.7673 45.5948 22.6451 45.7698 22.5938 46.007C22.5381 46.1776 22.5511 46.3772 22.6329 46.6057C22.7211 46.934 22.8581 47.2424 23.0439 47.5309C23.1944 47.7883 23.3603 48.028 23.5418 48.25L30.527 47.7944ZM40.2746 36.6863C39.5616 35.9979 38.6895 35.6874 37.6584 35.7546C36.6272 35.8219 35.7696 36.2453 35.0856 37.0248C34.4703 37.8332 34.1962 38.753 34.2635 39.7842C34.3307 40.8153 34.7209 41.6751 35.4339 42.3635C36.2155 43.0808 37.1219 43.4058 38.1531 43.3385C39.1842 43.2712 40.0075 42.8334 40.6228 42.025C41.3069 41.2454 41.6153 40.3401 41.548 39.309C41.4807 38.2778 41.0563 37.4036 40.2746 36.6863Z" fill="white"/>
<path d="M21.8244 32.6788C22.0638 32.7634 22.3133 32.7471 22.5728 32.63C22.797 32.4817 22.968 32.2868 23.0859 32.0453C23.1683 31.7727 23.152 31.5232 23.0371 31.2969C22.8866 31.0395 22.6918 30.8685 22.4524 30.7839C20.9476 30.2474 19.4519 30.3616 17.9652 31.1267C16.9623 31.6264 16.1719 32.3126 15.5942 33.1854C15.4409 33.3958 15.3907 33.6496 15.4434 33.9468C15.4941 34.2108 15.6412 34.4183 15.8849 34.5694C16.0953 34.7227 16.3491 34.773 16.6463 34.7202C16.9103 34.6695 17.1178 34.5224 17.2689 34.2787C17.6644 33.685 18.2028 33.2324 18.8839 32.9207C19.8536 32.4232 20.8338 32.3425 21.8244 32.6788ZM37.7417 33.1937C38.4576 33.4143 39.0502 33.7932 39.5195 34.3304C39.701 34.5524 39.9425 34.6703 40.244 34.684C40.5123 34.6999 40.7408 34.6182 40.9295 34.4389C41.1515 34.2574 41.2705 34.0325 41.2864 33.7642C41.3001 33.4627 41.2173 33.2176 41.038 33.0288C40.3517 32.2385 39.4789 31.6607 38.4196 31.2956C36.8461 30.7302 35.3648 30.8101 33.9758 31.5354C33.7162 31.6525 33.5452 31.8474 33.4627 32.12C33.3449 32.3615 33.3612 32.611 33.5116 32.8684C33.6265 33.0947 33.8214 33.2658 34.0962 33.3814C34.3355 33.466 34.585 33.4498 34.8446 33.3326C35.7499 32.8727 36.7156 32.8264 37.7417 33.1937Z" fill="#B8824D"/>
<path d="M33.9207 46.8214C34.0675 46.5112 34.18 46.1865 34.258 45.8474C34.2761 45.6123 34.2465 45.4139 34.1691 45.2519C34.0874 45.0234 33.9601 44.8647 33.7873 44.7757C33.579 44.6557 33.3751 44.6022 33.1755 44.6152L30.3316 44.8007L30.5269 47.7944L23.5417 48.25C23.763 48.5696 24.032 48.8527 24.3487 49.0993C25.6243 50.2186 27.077 50.7251 28.7069 50.6188C30.3367 50.5125 31.6958 49.8393 32.784 48.5991L32.8307 48.546C33.2971 48.0145 33.6604 47.4396 33.9207 46.8214Z" fill="#7F7058"/>
<path d="M38.5479 41.7093C38.9412 41.0824 39.1097 40.3365 39.0533 39.4717C38.9969 38.6069 38.7319 37.8726 38.2582 37.2688C37.82 36.6961 37.3015 36.4293 36.7028 36.4683C36.1041 36.5074 35.608 36.8404 35.2147 37.4673C34.8568 38.1253 34.706 38.8868 34.7624 39.7516C34.8188 40.6164 35.0661 41.3352 35.5044 41.9079C35.978 42.5117 36.5142 42.794 37.1129 42.755C37.7116 42.7159 38.19 42.3674 38.5479 41.7093Z" fill="#7F7058"/>
<path d="M21.7337 42.8062C22.127 42.1792 22.2955 41.4334 22.2391 40.5685C22.1827 39.7037 21.9176 38.9694 21.444 38.3656C21.0058 37.7929 20.4873 37.5261 19.8886 37.5652C19.2899 37.6042 18.7938 37.9372 18.4005 38.5641C18.0426 39.2222 17.8918 39.9836 17.9482 40.8484C18.0046 41.7133 18.2519 42.432 18.6901 43.0047C19.1638 43.6085 19.7 43.8909 20.2987 43.8518C20.8974 43.8127 21.3758 43.4642 21.7337 42.8062Z" fill="#7F7058"/>
<path d="M2.28447 23.4812C1.25202 32.2337 2.21567 40.6053 5.17545 48.5963C8.26666 45.2881 9.77134 39.6782 9.68952 31.7668C12.0857 19.8522 24.5898 9.26579 47.2017 0.00758971C30.6363 4.66244 17.9795 9.58008 9.23154 14.7605L6.64689 19.6892L2.28447 23.4812Z" fill="#B8824D"/>
<path d="M27.0384 28.8813C32.6974 30.1156 38.6481 30.4456 44.8907 29.8713L46.4158 37.8891C48.8569 28.7107 49.4259 22.3268 48.1228 18.7373C46.3272 13.7436 46.0202 7.50038 47.2016 0.00758362C24.5897 9.26579 12.0856 19.8522 9.6894 31.7668C14.2666 28.1946 20.0496 27.2328 27.0384 28.8813Z" fill="#C48A51"/>
</svg>
